PathFileType	4	(X/Y/Z)	 s11c0103.trc
DataRate	CameraRate	NumFrames	NumMarkers	Units	OrigDataRate	OrigDataStartFrame	OrigNumFrames
200	200	7	48	mm	200	1001	2000
Frame#	Time	racr			lacr			c7			jug			rlel			rdr			llel			ldr			s2			lic			ric			lasi			rasi			rpsi			lpsi			rgt			lgt			rth1			rth2			rth3			rth4			rlfc			rmfc			rsh1			rsh2			rsh3			rsh4			rlmal			rcal			rtoe			rmt5			lth1			lth2			lth4			lth3			llfc			lmfc			llmal			lcal			lmt5			lsh1			lsh2			lsh3			lsh4			ltoe			SBIKE			LBIKE			RBIKE			
		X1	Y1	Z1	X2	Y2	Z2	X3	Y3	Z3	X4	Y4	Z4	X5	Y5	Z5	X6	Y6	Z6	X7	Y7	Z7	X8	Y8	Z8	X9	Y9	Z9	X10	Y10	Z10	X11	Y11	Z11	X12	Y12	Z12	X13	Y13	Z13	X14	Y14	Z14	X15	Y15	Z15	X16	Y16	Z16	X17	Y17	Z17	X18	Y18	Z18	X19	Y19	Z19	X20	Y20	Z20	X21	Y21	Z21	X22	Y22	Z22	X23	Y23	Z23	X24	Y24	Z24	X25	Y25	Z25	X26	Y26	Z26	X27	Y27	Z27	X28	Y28	Z28	X29	Y29	Z29	X30	Y30	Z30	X31	Y31	Z31	X32	Y32	Z32	X33	Y33	Z33	X34	Y34	Z34	X35	Y35	Z35	X36	Y36	Z36	X37	Y37	Z37	X38	Y38	Z38	X39	Y39	Z39	X40	Y40	Z40	X41	Y41	Z41	X42	Y42	Z42	X43	Y43	Z43	X44	Y44	Z44	X45	Y45	Z45	X46	Y46	Z46	X47	Y47	Z47	X48	Y48	Z48	
1001	5.0050	477.018115	1401.712045	-37.404657	525.384415	1384.149532	-325.424231	432.291632	1484.552633	-186.654075	464.961261	1303.801771	-182.495356	578.081027	1159.385576	65.142054	778.246835	943.888233	-30.119580	654.860302	1203.662952	-538.418552	805.766149	926.220156	-435.369166	-97.560276	1202.978088	-292.158224	145.431885	1226.335915	-455.225171	66.207600	1250.797934	-59.685265	175.781802	1164.637898	-417.766597	105.609908	1195.587761	-99.195775	-78.193476	1285.585475	-246.988391	-56.192778	1274.559032	-331.731699	57.623770	1131.974752	-35.729038	49.288703	1078.923458	-469.665597	195.314348	1092.805880	-25.364731	284.664846	1098.225355	-25.895570	363.283306	1059.040775	-29.125250	291.722732	1132.426804	-39.101000	471.792280	1033.864990	-35.991855	495.734159	1018.259851	-171.138253	421.876305	888.801865	-37.414789	405.083879	804.201228	-57.624483	348.357403	738.718652	-65.799216	432.950125	796.317612	-84.805198	272.456207	616.045452	-86.772817	214.081200	631.793731	-138.773572	441.496318	456.232051	-134.727042	367.057624	469.471369	-67.598164	125.915616	955.050607	-484.737473	182.322250	891.296106	-478.423572	215.611314	906.852471	-472.888885	199.673102	803.398053	-468.084862	253.303409	678.354426	-441.606230	269.518409	671.772017	-314.070863	74.189861	284.015039	-418.481642	13.766132	249.915418	-381.126521	206.467483	167.441431	-444.896975	201.323206	566.073760	-460.758213	189.775737	482.264680	-444.234261	137.063992	411.812239	-439.231937	219.289235	474.047676	-421.411951	303.778934	176.408047	-375.506166	-205.176835	952.486263	-262.661549	1.037477	82.824567	-460.905206	-15.516542	81.578576	-62.499584	
1002	5.0100	477.188399	1399.740929	-37.860391	526.515595	1380.370305	-322.397132	432.819481	1482.918608	-185.562959	463.350163	1301.638006	-180.499004	577.738156	1158.914792	64.775385	778.260555	943.636854	-29.970008	661.970622	1207.152845	-535.165426	805.327451	925.279471	-433.153254	-98.050666	1205.733228	-292.216522	145.080255	1227.449479	-455.829639	65.458846	1252.664702	-59.725388	175.201738	1165.448106	-418.485625	104.775117	1196.697993	-99.074730	-78.216420	1288.388391	-246.683604	-55.987925	1276.869966	-332.199584	56.290975	1133.212805	-36.028100	48.263226	1080.206465	-470.438082	193.711679	1092.578298	-26.357451	283.066969	1096.795415	-27.112630	361.236726	1056.619542	-30.302748	290.570828	1130.929633	-40.202363	470.669141	1029.938773	-37.177415	493.232059	1014.580391	-172.478084	422.043755	884.126523	-37.605937	406.216981	799.088499	-57.409138	350.314876	732.950302	-65.121752	434.023727	791.467158	-84.706273	276.363882	609.304596	-85.303370	216.445526	622.404601	-137.140438	451.151339	456.596414	-133.965057	376.023416	466.041595	-66.625921	126.673941	957.023119	-485.424039	184.364865	894.486331	-479.272274	217.335144	910.620104	-474.014274	203.576793	806.872395	-469.476714	258.086759	682.233876	-442.680487	275.548792	675.780090	-315.271283	68.967025	292.981696	-418.628296	8.077021	260.699516	-381.305189	197.887338	171.779807	-444.947837	203.244003	571.294428	-461.684856	189.667662	487.848033	-444.916879	135.196624	418.706351	-439.815577	218.969784	479.039550	-422.240090	295.507849	177.114490	-375.867206	-205.160353	952.461365	-262.652589	1.043091	82.822772	-460.896185	-15.517828	81.598245	-62.505098	
1003	5.0150	477.458882	1397.557386	-38.260581	527.633204	1376.414480	-319.312054	433.530305	1481.063112	-184.513601	461.750370	1299.405024	-178.641396	577.309383	1158.116381	64.407490	778.154419	943.311586	-29.898241	668.610881	1210.070988	-531.615078	806.076476	925.294482	-433.103251	-98.542156	1208.345945	-292.183925	144.265135	1228.680934	-456.157855	65.101903	1254.114300	-59.960398	174.498585	1166.205837	-419.480087	104.064995	1197.229764	-98.819148	-78.185195	1291.117233	-246.283467	-56.352537	1279.369854	-332.006692	54.939116	1134.037138	-36.488183	47.275657	1081.501079	-471.229754	192.168976	1091.781615	-27.516419	281.548825	1094.686507	-28.348685	359.157857	1053.463720	-31.402469	289.545645	1128.777820	-41.343240	469.084176	1024.950816	-37.895188	490.649942	1009.676752	-174.336693	421.935302	878.333923	-37.620821	407.143512	792.954354	-57.124679	352.017438	726.024110	-64.333472	434.857837	785.567242	-84.511182	279.686893	600.971148	-84.259458	218.557575	611.962922	-135.503920	460.346434	456.410481	-133.300903	384.956398	462.207522	-65.634167	127.671452	959.114529	-485.970587	186.663780	897.795115	-480.026688	219.284100	914.571113	-474.899764	207.842668	810.548366	-470.803580	263.411402	686.406829	-443.459569	281.881381	680.032588	-316.182744	64.388808	302.466789	-418.927277	2.857938	271.976533	-381.517138	189.647821	176.867195	-444.964304	205.501349	576.777353	-462.466041	189.924455	493.753951	-445.498099	133.835580	425.906970	-440.427620	219.046910	484.285088	-422.862373	287.374214	178.405933	-376.025002	-205.043525	952.369453	-263.017495	1.045093	82.862856	-460.905443	-15.499611	81.594177	-62.517715	
1004	5.0200	477.288398	1394.816344	-39.184628	528.740341	1372.355007	-316.177019	434.395836	1478.953807	-183.441104	460.229428	1297.262706	-176.978213	576.867452	1156.851384	64.248894	777.916982	942.848154	-29.892432	674.768507	1212.386353	-527.723855	806.836781	925.150820	-432.677974	-99.015944	1210.722263	-292.050092	143.396419	1229.964692	-456.619086	64.852772	1255.161844	-60.226253	173.745081	1166.707567	-420.767454	103.571518	1197.350394	-98.815031	-78.011651	1293.662579	-245.803979	-56.738651	1281.732812	-331.843348	53.861685	1134.514180	-37.118534	46.340539	1082.750141	-472.014061	190.788940	1090.410111	-28.609126	280.206982	1092.001952	-29.548904	357.202374	1049.624672	-32.499868	288.636052	1126.050788	-42.533082	467.760434	1019.099460	-39.347061	487.916682	1003.317482	-174.966858	421.638718	871.285013	-37.728080	407.795455	785.812543	-56.864417	353.443192	718.061691	-63.552125	435.359322	778.763916	-84.297045	282.590978	591.653411	-83.185424	220.283380	600.283448	-133.735409	468.746468	455.662454	-132.574914	393.234564	457.613801	-64.571490	128.892188	961.249409	-486.371648	189.163216	901.257508	-480.523690	221.394338	918.660089	-475.573594	212.281217	814.421990	-471.990574	269.139203	690.820368	-444.015319	288.391906	684.621819	-317.083056	60.309852	312.320580	-419.442430	-1.845236	283.545010	-381.898272	181.679566	182.283646	-444.954967	208.096767	582.498898	-463.086916	190.547982	499.853634	-445.978807	132.846277	433.440214	-440.869957	219.399489	489.915842	-423.328302	279.366802	180.417016	-376.145910	-205.004576	952.329992	-263.028556	1.076748	82.849499	-460.900586	-15.504125	81.624221	-62.512851	
1005	5.0250	477.656672	1392.382630	-39.465181	529.835338	1368.301823	-313.078213	435.364725	1476.861471	-182.507550	458.746882	1295.075391	-175.578778	576.408031	1155.352904	64.137070	777.702336	942.312533	-29.817044	680.318859	1214.043868	-523.549137	807.556610	924.988861	-431.944826	-99.402459	1212.884698	-291.909004	142.486395	1231.264203	-457.316989	64.990515	1255.828172	-60.471989	172.793667	1167.080150	-422.168885	103.162405	1197.194991	-98.973078	-76.604844	1295.531429	-245.421111	-57.144555	1283.919760	-331.613920	52.951553	1134.584382	-37.835713	45.476611	1083.889215	-472.789264	189.604139	1088.562008	-29.569471	279.033824	1088.810528	-30.689441	355.474874	1045.432355	-33.456593	287.974848	1122.646287	-43.712705	466.213169	1012.462036	-41.006423	484.617871	995.945943	-176.794928	421.113610	863.176674	-37.757461	408.168756	777.491005	-56.735628	354.697764	708.973897	-62.830918	435.532907	770.686845	-84.401283	285.266570	581.539492	-82.046898	221.527593	587.322861	-132.127817	476.428110	454.478697	-132.319862	401.368531	452.525108	-63.473039	130.327207	963.396580	-486.653305	191.863829	904.717988	-480.858464	223.659420	922.856812	-475.927713	216.931705	818.456028	-472.914093	275.164744	695.473748	-444.420493	294.918385	689.430417	-317.735062	56.714517	322.334479	-420.153037	-6.155108	295.384358	-382.278410	174.156049	188.388586	-444.937525	210.968525	588.380907	-463.526016	191.402863	506.495678	-446.579194	132.217071	441.197472	-441.365037	220.021178	495.691669	-423.583466	271.652708	183.082744	-376.237562	-204.980805	952.306716	-263.043500	1.106569	82.790820	-460.942713	-15.472362	81.601877	-62.497050	
1006	5.0300	478.118240	1389.975191	-39.778201	530.965644	1364.360057	-309.948225	436.333556	1474.736865	-181.622997	457.391918	1292.960539	-174.577178	575.725476	1153.494222	63.941472	777.431444	941.742547	-29.713255	685.185269	1215.064297	-519.066877	808.210000	924.750991	-431.067963	-99.777238	1214.795827	-291.655138	141.427486	1232.666557	-458.041302	66.077815	1256.519777	-59.113502	171.645183	1167.267157	-423.632218	102.667655	1196.624223	-99.831561	-76.288828	1297.597724	-244.965353	-57.565290	1285.871787	-331.313121	52.128804	1134.189633	-38.681797	44.599983	1085.047191	-473.574428	188.457027	1086.218729	-30.412616	278.064445	1085.150244	-31.773106	353.820342	1040.558546	-34.509526	287.421586	1118.776926	-44.923147	464.229516	1005.086279	-42.767667	481.685143	987.357616	-177.863832	420.341335	853.948120	-37.802622	408.204948	768.014325	-56.775357	355.598985	698.975902	-62.209126	435.290237	761.622926	-85.103022	287.679827	570.563070	-81.148364	222.561883	573.345911	-130.213116	483.373473	452.721922	-132.089942	408.920162	446.736860	-62.974396	131.937120	965.599427	-486.852858	194.766762	908.263664	-480.958801	226.091724	927.140981	-476.060732	221.708207	822.541395	-473.540224	281.361967	700.250427	-444.577015	301.164110	694.724212	-318.183588	53.547316	332.413743	-420.939944	-10.010539	307.341371	-382.776206	167.110413	194.941305	-444.782486	214.055030	594.474539	-463.887281	192.582703	513.074904	-446.846232	131.855837	449.181694	-441.739406	220.843647	501.698815	-423.790250	264.196098	186.432748	-376.027451	-204.945582	952.286247	-263.097505	1.126296	82.809016	-460.956305	-15.470995	81.606772	-62.501675	
1007	5.0350	478.993445	1387.641280	-39.850169	532.110788	1360.533824	-306.987978	437.199529	1472.728836	-180.677113	456.244222	1290.913249	-173.810506	575.200500	1151.363882	63.962519	777.148809	941.161771	-29.728787	689.293829	1215.711122	-514.323604	808.399636	924.111343	-429.852964	-100.040209	1216.315404	-291.332918	140.141428	1233.835910	-458.443247	66.115378	1256.220900	-59.037565	170.343957	1167.395084	-425.129194	102.321096	1195.447246	-99.718496	-76.027150	1299.284586	-244.215730	-57.931840	1287.550144	-330.865053	51.542076	1133.487298	-39.581518	43.912816	1086.091065	-474.259886	187.656299	1083.465444	-31.074202	277.228436	1080.888588	-32.816153	352.400448	1035.264594	-35.331149	286.992489	1114.349659	-46.104059	461.640728	997.192446	-44.345158	478.788345	977.854553	-178.954487	419.328781	843.732619	-37.807508	407.933175	757.745371	-57.006506	356.145222	687.977123	-61.710104	434.616760	751.648546	-85.761955	289.673828	558.723629	-80.324235	223.318295	558.809073	-128.803272	489.666235	450.432988	-131.545635	415.523033	440.386039	-62.045907	133.774959	967.821404	-486.961022	197.720231	911.834691	-480.911885	228.605482	931.271729	-475.859868	226.557318	826.643186	-473.786005	287.634827	705.284293	-444.717766	307.549011	699.487475	-318.192258	50.881993	342.644284	-421.741020	-13.445886	319.355388	-383.247211	160.648309	201.887452	-444.585345	217.340162	600.628900	-464.106573	193.938398	519.843068	-446.994197	131.760130	457.314890	-442.019016	221.960939	507.720655	-423.742655	257.098951	190.444421	-375.626262	-204.906017	952.260657	-263.150406	1.142661	82.782064	-460.960511	-15.459947	81.565190	-62.521111	
